<svg viewBox="0 0 512 512">
    <style type="text/css">
        .st0{fill:#2196F3;}
        .st1{fill:#35a6ff;}
    </style>
    <path class="st0" d="M256.2,0c-23.6,92.2-62.2,181.2-119.7,257.6c-55.9,61.4-44.9,167.8,20.5,219
        c27.6,22.8,63.8,35.4,99.2,35.4s71.7-12.6,99.2-35.4c65.4-51.2,75.6-157.5,20.5-219C318.4,181.2,279.8,92.2,256.2,0z"/>
    <path class="st1" d="M257,19.7c-13.4,64.6-34.7,126.8-66.2,180.4c-30.7,42.5-25.2,115.8,11,151.2
        c15,15.8,35.4,24.4,55.1,24.4s40.2-8.7,55.1-24.4c36.2-35.4,41.7-108.7,11-151.2C291.6,147.3,269.6,84.3,257,19.7z"/>
</svg>